<?xml version="1.0" encoding="UTF-8"?><svg xmlns="http://www.w3.org/2000/svg" xmlns:xlink="http://www.w3.org/1999/xlink" height="472.9" preserveAspectRatio="xMidYMid meet" version="1.0" viewBox="-0.0 0.0 1562.9 472.9" width="1562.9" zoomAndPan="magnify"><g><g id="change1_1"><path d="M 1326.519531 455.445312 L 236.144531 454.984375 C 115.335938 454.933594 17.441406 356.957031 17.492188 236.148438 C 17.542969 115.339844 115.519531 17.445312 236.328125 17.496094 L 1326.699219 17.960938 C 1447.511719 18.011719 1545.410156 115.988281 1545.351562 236.796875 C 1545.300781 357.605469 1447.328125 455.496094 1326.519531 455.445312" fill="#fff"/></g><g id="change2_1"><path d="M 1326.519531 437.953125 C 1326.550781 437.953125 1326.589844 437.953125 1326.609375 437.953125 C 1437.539062 437.953125 1527.808594 347.730469 1527.859375 236.789062 C 1527.910156 125.820312 1437.671875 35.5 1326.699219 35.453125 L 236.320312 34.988281 C 236.296875 34.988281 236.261719 34.988281 236.234375 34.988281 C 125.300781 34.988281 35.035156 125.210938 34.984375 236.15625 C 34.964844 289.910156 55.875 340.457031 93.871094 378.484375 C 131.867188 416.511719 182.394531 437.46875 236.152344 437.488281 Z M 1326.609375 472.941406 C 1326.578125 472.941406 1326.550781 472.941406 1326.511719 472.941406 L 236.136719 472.476562 C 173.035156 472.449219 113.722656 447.851562 69.121094 403.214844 C 24.519531 358.574219 -0.0273438 299.238281 0 236.140625 C 0.0273438 173.039062 24.625 113.726562 69.261719 69.125 C 113.878906 24.550781 173.171875 0.00390625 236.234375 0.00390625 C 236.269531 0.00390625 236.300781 0.00390625 236.335938 0.00390625 L 1326.710938 0.46875 C 1389.808594 0.492188 1449.128906 25.09375 1493.730469 69.730469 C 1538.328125 114.367188 1562.871094 173.703125 1562.851562 236.804688 C 1562.820312 299.902344 1538.21875 359.21875 1493.578125 403.820312 C 1448.96875 448.394531 1389.679688 472.941406 1326.609375 472.941406" fill="inherit"/></g><g id="change2_2"><path d="M 1434.828125 213.414062 L 1372.988281 151.570312 L 1349.929688 174.632812 L 1411.769531 236.472656 L 1349.929688 298.3125 L 1372.988281 321.371094 L 1457.890625 236.472656 L 1434.828125 213.414062" fill="inherit"/></g></g></svg>